<svg xmlns="http://www.w3.org/2000/svg" version="1.1" xmlns:xlink="http://www.w3.org/1999/xlink" xmlns:svgjs="http://svgjs.dev/svgjs" viewBox="0 0 800 800"><defs><linearGradient x1="50%" y1="0%" x2="50%" y2="100%" id="ssscribble-grad"><stop stop-color="hsl(230, 55%, 50%)" stop-opacity="1" offset="0%"></stop><stop stop-color="hsl(230, 55%, 70%)" stop-opacity="1" offset="100%"></stop></linearGradient></defs><g fill="none" stroke-width="1.5" stroke="url(#ssscribble-grad)" stroke-linecap="round"><path d="M708.27 218.61C650.2 251.47 736.2 299.79 900.15 367.12 1043.84 440.19 1075.42 538.61 985 656.94 819.94 763.88 661.63 853.49 572.16 887.97 573.26 852.24 646.26 746.21 744.96 612.15 841.17 539.5 892.57 579.85 892.91 746.64 850.31 945.69 776.24 1053.37 691.9 977.7 597.48 785.83 513.39 642.13 445.9 699.88 379.74 919.95 330.02 1093.41 297.16 1033.51 257.08 725.9 271.72 1001.12 321.35 1012.69 348.73 809.53 368.69 623.67 360.65 574.76 309.66 673.47 211.08 827.3 71.8 930.89 -69.96 938.58 -181.92 845.65 -217.24 706 -161.98 553.72 -33.15 438.08 107.82 367.39 174.15 331.34 123.87 320.45 -32.5 313.85 -209.13 315.36 -301.79 303.12 -243.72 270.27 -73.46 237.41 95.42 185.49 160.29 122.01 89.48 66.63 -61.44 17.74 -197.86 -3.17 -253.1 10.55 -195.13 72.07 -59.77 173.69 102.06 262.71 228.27 308.49 290.06 257.75 284.49 111.11 231.86 -81.68 164.56 -214.62 67.41 -121.78 35.37 90.53 78.97 -214.4 117.69 -296.29 156.14 -149.27 189 81.47 221.86 141.44 247.57 -25.31 270.83 -232.72 300.02 -277.84 338.16 -115.46 395.54 100.49 470.87 200.28 573.07 122.1 696.83 -42.71 814.77 -175.31 914.58 -176.72 963.22 -61.03 944.5 116.08 857.25 269.3 729.63 355.7 628.48 371.89 599.99 336.4 679.31 286.42 924.64 205.71 959.64 177.83 708.27 218.61Q708.27 218.61 708.27 218.61" opacity="0.11"></path><path d="M674.27 446.79C615.2 477.3 681.87 529.7 827.08 599.29 975.37 664.64 1042.98 735.71 1003.07 794.27 876.55 822.29 719.26 807.87 590.86 739.18 524.4 645.27 531.03 543.72 588.22 489.58 677.39 530.89 758.41 669.92 810.65 859.15 836.12 994.3 825.47 998.36 790.29 856.46 737.29 678.75 677.95 600.15 623.16 705.85 565.31 919.82 519.25 1063.84 488.74 999.51 451.47 704.88 444.17 917.01 446.2 1026.88 428.5 891.52 388.91 693.25 316.4 555.99 217.14 541.56 92.3 635.76 -36.84 763.43 -134.03 869.31 -176.83 896.99 -142.15 851.07 -45.52 749.29 84.4 628.06 188.54 517.62 206.08 414.65 121.11 339.42 -38.95 286.7 -195.93 241.75 -268.78 206.8 -209.72 176.29 -53.11 145.78 109.89 121.14 192.39 108.54 157.67 103.7 35.42 123.42 -103.61 173.5 -200.03 231.06 -205.32 302.05 -125.86 356.81 9.79 355.71 153 284.26 265.14 138.39 331.59 -29.26 345.89 -159.66 324.69 -177.04 275.38 -71.56 224.27 99.33 185.9 212.35 143.81 71.48 159.28 -176.05 200.11 115.47 230.62 179.87 269.57 42.07 319.02 -160.12 372.35 -254.09 442.17 -158.16 529.99 41.9 621.24 206.18 722.6 229.53 818.94 126.16 887.16 -31.28 916.67 -134.15 890.21 -135.49 818.06 -41.38 711.03 103.96 607.15 244.9 559.46 360.63 592.12 425.32 710.91 450.19 942.12 436.74 909.29 412.7 674.27 446.79Q674.27 446.79 674.27 446.79" opacity="0.29"></path><path d="M640.27 621.02C581.03 649.19 629.77 680.6 754.21 708.97 898.94 729.92 992.15 734.16 998.8 710.49 920.97 669.03 788.95 598.84 650.46 514.9 538.48 457.47 481.05 443.03 477.26 502.69 519.91 630.49 583.93 797.29 646.6 935.66 706.68 975.14 743.08 892.09 755.26 725.83 753.77 590.93 735.44 578.73 708.4 718.41 676.98 917.75 645.2 1032.92 617.03 965.51 588.87 769.14 565.65 604.01 543.95 590.9 517.87 731.03 484.95 909.07 437.64 999.03 376.64 949.29 293.85 791.32 190.36 618.93 84.29 506.35 -20.16 496.17 -99.73 565.01 -132.85 679.14 -108.82 777.37 -26.17 828.9 82.98 833.4 189.75 790.06 246.93 721.99 219.63 634.78 110.39 551.85 -45.2 484.42 -180.5 416.92 -234.96 368.34 -175.72 340.17 -32.73 312 122.26 305.57 217.55 319.94 215.92 334.25 127.85 365.94 1.6 404.34 -116.12 423.61 -172.85 420.58 -154.82 372.68 -71.44 277.76 50.04 139.1 174.82 -11.94 285.67 -117.71 360.41 -140.96 398.86 -57.73 405.6 85.32 391.96 218.05 372.51 247.17 334.15 39.56 320.02 -126.6 353.75 149.47 381.91 216.94 425.79 107.51 483.89 -80.95 541.97 -209.79 612.72 -181.59 690.13 -26.06 788.41 215.01 842.91 83.29 751.82 -74.29 663.95 -97.04 575.86 -42.16 521.81 58.67 533.11 186.02 615.1 302.59 753.48 392.86 900.37 465.35 1004.47 512.34 1016.98 544.51 932.56 569.26 783.26 592.85 640.27 621.02Q640.27 621.02 640.27 621.02" opacity="0.75"></path><path d="M606.27 540.46C547.67 566.28 580.15 575.42 682.72 566.67 816.86 555.41 924.45 523.87 969.12 475.79 941.9 434.59 851.78 396.51 730.53 383.44 604.09 414.92 504.21 497.61 444.04 628.86 424.71 771.14 439.71 890.62 473.28 935.57 522.83 884.92 567.97 753.74 600.14 604.76 629.1 530.01 641.35 576.85 638.45 735.21 632.89 913 616.38 1000.62 590.56 931.51 564.74 752.75 530.83 588.86 487.7 542.84 441.91 636.16 382.69 798.79 308.98 928.46 232.07 960.53 144.41 877.13 55.07 728.22 -18.29 571.63 -70.35 469.69 -84.86 441.72 -58.53 482.74 10.72 561.43 110.28 642.09 204.64 716.23 271.61 756.44 279.9 764 216.31 750.01 94.03 717.56 -50.07 679.68 -162.61 636.17 -200.32 598.82 -141.72 573 -12.26 547.17 132.83 534.1 236.02 528.92 262.86 518.11 210.94 503.6 109.4 472.86 -9.43 420.56 -98.31 337.84 -133.37 223.91 -111.58 103.46 -38.99 -12.3 61.19 -87.18 175.16 -93.07 278.36 -21.76 359.52 107.92 420.84 229.96 458.08 290.23 478.83 239.27 488.18 2.02 507.71 -74.62 540.31 183.46 566.13 252.62 602.98 170.28 647.58 2.45 689.36 -145.96 732.85 -178.13 769.99 -84.48 793.98 83.42 799.26 237.77 777.73 315.31 736.37 297.26 670.24 208.4 590.11 99.96 523.76 2.53 481.79 -43.07 486.87 -34.77 548.82 18.09 660.85 98.69 798.62 184.63 919.09 277.46 985.7 355.97 968.83 415.92 875.6 473.37 735.73 514.64 606.27 540.46Q606.27 540.46 606.27 540.46" opacity="0.96"></path><path d="M572.23 297.99C515.13 321.46 533.24 328.63 613.85 322.91 731.84 320.51 842.82 312.87 913.84 310.52 931.54 326.27 890.04 365.06 805.82 437.04 695.42 534.07 584.71 654.74 491.94 776.7 421.97 863.61 382.47 894.24 367.92 847.94 375.01 743.09 392.88 610.68 411.69 510.47 436.35 499.96 452.59 591.7 456.64 753.63 460.86 904.88 451.72 966.94 428.25 897.52 404.78 736.49 368.08 578.08 319.6 506.41 271.28 552.64 212.34 682.35 147.01 822.69 87.52 914.63 30.99 913.84 -12.26 830.5 -33.89 694.76 -28.08 556.84 11.11 453.96 73.12 399.04 156 396.5 241.96 428.21 301.74 486.41 322.18 544.56 287.28 588.71 199.05 628.26 74.72 647.09 -52.33 647.92 -141.99 644.66 -164.86 629.88 -107.76 606.41 8.29 582.93 141.88 551.89 248.24 510.88 297.74 465.79 280.55 404.25 211.07 324.03 108.54 239.19 9.71 142.4 -59.9 48.02 -91.91 -19.86 -77.02 -51.02 -25.09 -26.86 55.18 45.25 146.92 155.33 235.78 266.63 322.12 325.54 393.11 305.28 447.98 196.13 494.12 38.58 528.66 -104.48 556.1 -159.76 580.51 -97.16 603.4 56.49 626.88 217.52 650.35 286.94 673.29 229.63 693.14 87.45 709.97 -65.42 718.14 -143.8 712.68 -116.08 698.49 1.32 666.16 154.78 616 284.07 563.32 354.81 505.27 352.01 455.75 295.87 434.58 204.67 447.5 117.7 503.94 56.84 597.99 21.04 717.86 20.91 837.61 45.83 924.3 88.86 954.87 139.19 914.45 185.86 817.17 235.85 688.34 274.5 572.27 297.98Q572.23 297.99 572.23 297.99" opacity="0.33"></path><path d="M538.67 172.98C483.53 194.1 488.99 215.77 548.14 240.84 646 269.98 750.66 309.84 835.23 365.83 886.64 431.97 890.89 517.02 852.58 616.05 780.13 709.08 688.84 791.44 595.13 841.48 504.06 844.4 429.37 793.87 373.97 695.73 334.14 585.49 310.41 491.33 296.83 454.91 291.97 500.38 288.9 618.84 282.55 770.87 278.16 892.65 266.42 931.76 245.29 863.41 224.17 720.13 194.66 570.98 159.22 481.64 125.72 484.95 90.37 571.24 58.61 695.85 35.58 815.4 24.53 880.17 31.8 874.98 54.64 806.19 99 696.99 162.38 579.57 228.41 469.82 294.65 391.34 345.11 346.98 361.42 332.39 338.22 340.24 271.32 357.22 171.28 384.91 54.59 406.88 -51.41 416.69 -118.71 427.32 -128.46 422.88 -73.32 401.76 29.7 380.64 150.47 343.84 255.35 293.37 320.63 243.72 333.42 183.33 298.13 119.02 223.9 65.43 135.47 22.78 54.42 4.8 -10.85 16.59 -43.6 64.73 -43.37 146.78 -14.83 236.52 36.54 320.68 99.64 367.49 172.95 350.7 244.22 267.01 307.51 131.98 369.75 -8.1 421.25 -106.44 461.72 -117.93 500.84 -36.77 530.94 108.06 552.07 251.36 573.19 319.75 584.34 284.96 585.06 171.35 584.43 27.47 571.35 -78.98 545.72 -108.99 519.05 -57.1 482.56 55.99 441.81 188.23 411.27 308.38 390.22 383.96 389.37 408.73 416.82 386.38 474.63 334.35 561.9 273.88 664.95 207.41 772.32 157.15 862.04 127.62 912.81 108.23 912.05 106.8 854.92 117.5 758.19 132.27 641.71 151.85 538.67 172.98Q538.67 172.98 538.67 172.98" opacity="0.10"></path><path d="M504.22 309.82C452.48 328.6 448.18 360.31 488.03 404.32 564.02 449.05 654.67 506.51 740 573.81 810 637.55 848.36 702.64 852.49 758.32 825.74 792.29 772.97 799.04 705.1 769.39 626.1 710.36 548.17 623.75 478.15 527.38 412.75 453.42 359.57 418.53 318.01 443.02 282.29 527.1 254.52 653.18 231.88 784.66 211.16 876.15 192.03 895.4 173.25 829.47 154.47 703.83 136.94 567.21 122.24 468.38 109.47 436.57 103.07 476.7 106.26 566.61 115.28 680.64 137.53 777.82 173.99 833.75 215.07 842.17 266.04 801.42 320.43 727.66 363.69 631.45 394.2 534.3 401.4 449.59 377.71 375.67 322.52 322.48 238.75 286.88 139.65 262.75 38.32 247.77 -44.91 235.55 -92 226.52 -91.51 213.98 -39.77 195.21 50.12 176.43 157.06 152.3 256.77 125.91 349.87 93.13 293.89 89.32 191.15 145.43 117.71 201.2 59.25 271.39 21.89 342.99 2.88 392.14 6.45 410.62 27.38 382.65 62.08 307.17 105.08 193.15 149.88 65.36 199.16 -38.3 244.31 -89.12 281.97 -64.56 320.17 27.01 349.43 159.83 368.21 285.47 386.99 351.4 394.41 335.95 391.62 251.71 389.38 127.47 378.39 12.08 361.65 -58.22 349.39 -68.95 337.31 -17.23 331.54 76.28 339.55 192.2 362.93 301.07 406.55 384.71 468.5 438.98 549.22 459.19 642.22 454.15 732.94 427.42 812.92 393.25 866.61 362.05 883.25 327.29 857.23 304 789.76 294.67 697.3 286.08 594.17 291.03 504.26 309.81Q504.22 309.82 504.22 309.82" opacity="0.76"></path><path d="M470.26 550.49C412.19 583.35 491.28 648.37 634.08 714.03 769.34 744.48 815.24 711.32 774.21 589.41 671.98 457.07 552.24 381.19 453.95 470.78 359.33 684.4 295.33 855.43 262.47 795.46 229.61 564.71 231 408.79 268.67 453.27 344.24 707.6 395.21 624.96 195.49 434.26 28.6 324.7 -63.8 257.38 -5.73 224.52 164.52 191.66 333.66 196.37 407.61 248.98 365.87 310.86 257.48 403.3 155.53 456.76 76.22 399.14 57.83 221.9 81.06 14.68 125.7 -53.88 174.65 88.71 207.51 319.46 240.38 379.43 254.03 221.72 266.34 32.18 300.06 -33.31 369.73 77.42 492.12 252.83 637.14 417.81 780.38 502.25 846.2 528.75 796.34 520.04 640.52 517.63 470.26 550.49Q470.26 550.49 470.26 550.49" opacity="0.91"></path><path d="M436.23 617.71C377.03 645.87 420.5 656.62 526.55 634.03 655.86 593.3 742.67 504.78 767.49 396.63 743.23 342.62 681.13 376.83 613.48 526.94 536.48 715.26 477.87 828.93 449.71 761.52 424.01 482.35 482.58 552.86 478.99 722.03 417.25 752.43 300.57 708.97 150.61 639.77 23.92 551.77 -30.96 484.35 28.23 456.19 171.21 428.02 325.85 441.77 423.96 480.96 441.75 501.35 391.64 500.85 317.27 433.54 229.37 301.02 171.43 124.02 150.57 -4.19 141.55 2.95 155.87 157.1 184.03 353.47 212.19 420.93 251.53 318.71 309.36 151.03 379.03 21.54 480.92 17.2 605.74 108.11 717.04 253.18 797.03 385.67 799.91 475.21 722.46 546.62 579.26 589.53 436.27 617.7Q436.23 617.71 436.23 617.71" opacity="0.40"></path><path d="M402.23 434.02C345.13 457.49 359.47 443.98 425.97 400.18 527.21 361.78 619.32 314.22 678.58 293.63 713.53 331.31 712.68 437.43 691.08 594.82 658.57 735.32 625 796.94 601.53 727.52 578.06 566.49 566.91 408.72 558.74 331.61 539.67 354.03 503.88 444.2 438.17 542.5 348.14 635.07 231.14 680.65 112.69 685.65 28.98 672.73 5.13 646.49 62.23 623.02 178.29 599.55 311.22 581.07 416.14 553.31 475.12 507.63 482.22 425.42 456.32 302.1 403.31 173.03 353.53 57.96 324.01 18.33 294.97 78.2 291.11 226.43 314.58 387.47 338.03 456.94 386.61 404.86 456.33 281.57 526.52 141.37 612.93 60.14 696.71 53.21 753.39 104.56 771.2 188.76 729.44 267.84 641.74 352.31 518.34 410.54 402.27 434.01Q402.23 434.02 402.23 434.02" opacity="0.30"></path><path d="M368.43 211.06C316.56 229.84 309.7 233.31 340.15 231.95 402.36 242.15 472.08 269.03 531.11 328.46 586.68 415.71 619.81 533.73 631.01 655.31 636.69 739.56 628.31 759.36 609.53 693.47 590.75 567.84 563.35 432.31 525.14 334.52 481.39 291.48 418.95 304.79 338.77 349.37 255.14 418.3 165.5 478.05 89.52 513.12 45.31 545.03 44.56 551.5 96.43 532.72 186.4 513.94 292.68 471.7 388.85 407.24 465.44 339.63 511.41 250.58 530.35 157.04 526.92 87.84 513.46 54.62 503.24 83.9 488.17 167.92 487 295.84 505.78 421.47 524.55 487.36 561.51 475.17 609.12 404.69 651.88 296.87 694.65 198.76 722.69 136.13 728.36 101.31 702.3 103.74 639.48 126.07 557.07 159.98 458.4 192.28 368.43 211.06Q368.43 211.06 368.43 211.06" opacity="0.15"></path><path d="M334.23 205.93C275.03 234.1 308.08 317.23 371.21 465.42 456.54 616.08 496.42 726.93 468.25 659.52 440.08 463.13 349.2 296.91 226.96 245.62 126.91 277.4 71.03 317.63 130.23 289.47 273.23 261.3 427 170.06 521.03 101.37 572.6 115.74 593.7 259.13 621.87 455.52 650.03 522.93 679.94 434.91 665.28 321.17 608.17 209.89 477.23 177.76 334.23 205.93Q334.23 205.93 334.23 205.93" opacity="0.65"></path><path d="M300.27 424.45C246.65 462.01 315.69 672.6 278.14 625.51 240.58 362.15 110.65 211.12 164.27 173.56 361.75 136.01 541.96 226.15 579.52 489.51 617.07 536.6 497.75 386.9 300.27 424.45Q300.27 424.45 300.27 424.45" opacity="0.76"></path></g></svg>